<svg width="1540" height="786" viewBox="0 0 1540 786" fill="none" xmlns="http://www.w3.org/2000/svg">
<circle cx="12" cy="17" r="12" fill="black" fill-opacity="0.03"/>
<circle cx="45" cy="17" r="12" fill="black" fill-opacity="0.03"/>
<circle cx="78" cy="17" r="12" fill="black" fill-opacity="0.03"/>
<circle cx="111" cy="17" r="12" fill="black" fill-opacity="0.03"/>
<circle cx="144" cy="17" r="12" fill="black" fill-opacity="0.03"/>
<circle cx="177" cy="17" r="12" fill="black" fill-opacity="0.03"/>
<circle cx="12" cy="50" r="12" fill="black" fill-opacity="0.03"/>
<circle cx="45" cy="50" r="12" fill="black" fill-opacity="0.03"/>
<circle cx="78" cy="50" r="12" fill="black" fill-opacity="0.03"/>
<circle cx="111" cy="50" r="12" fill="black" fill-opacity="0.03"/>
<circle cx="144" cy="50" r="12" fill="black" fill-opacity="0.03"/>
<circle cx="177" cy="50" r="12" fill="black" fill-opacity="0.03"/>
<circle cx="12" cy="83" r="12" fill="black" fill-opacity="0.03"/>
<circle cx="45" cy="83" r="12" fill="black" fill-opacity="0.03"/>
<circle cx="78" cy="83" r="12" fill="black" fill-opacity="0.03"/>
<circle cx="111" cy="83" r="12" fill="black" fill-opacity="0.03"/>
<circle cx="144" cy="83" r="12" fill="black" fill-opacity="0.03"/>
<circle cx="177" cy="83" r="12" fill="black" fill-opacity="0.03"/>
<circle cx="12" cy="116" r="12" fill="black" fill-opacity="0.03"/>
<circle cx="45" cy="116" r="12" fill="black" fill-opacity="0.03"/>
<circle cx="78" cy="116" r="12" fill="black" fill-opacity="0.03"/>
<circle cx="111" cy="116" r="12" fill="black" fill-opacity="0.03"/>
<circle cx="144" cy="116" r="12" fill="black" fill-opacity="0.03"/>
<circle cx="177" cy="116" r="12" fill="black" fill-opacity="0.03"/>
<circle cx="1363" cy="675" r="12" fill="black" fill-opacity="0.03"/>
<circle cx="1396" cy="675" r="12" fill="black" fill-opacity="0.03"/>
<circle cx="1429" cy="675" r="12" fill="black" fill-opacity="0.03"/>
<circle cx="1462" cy="675" r="12" fill="black" fill-opacity="0.03"/>
<circle cx="1495" cy="675" r="12" fill="black" fill-opacity="0.03"/>
<circle cx="1528" cy="675" r="12" fill="black" fill-opacity="0.03"/>
<circle cx="1363" cy="708" r="12" fill="black" fill-opacity="0.03"/>
<circle cx="1396" cy="708" r="12" fill="black" fill-opacity="0.03"/>
<circle cx="1429" cy="708" r="12" fill="black" fill-opacity="0.03"/>
<circle cx="1462" cy="708" r="12" fill="black" fill-opacity="0.03"/>
<circle cx="1495" cy="708" r="12" fill="black" fill-opacity="0.03"/>
<circle cx="1528" cy="708" r="12" fill="black" fill-opacity="0.03"/>
<circle cx="1363" cy="741" r="12" fill="black" fill-opacity="0.03"/>
<circle cx="1396" cy="741" r="12" fill="black" fill-opacity="0.03"/>
<circle cx="1429" cy="741" r="12" fill="black" fill-opacity="0.03"/>
<circle cx="1462" cy="741" r="12" fill="black" fill-opacity="0.03"/>
<circle cx="1495" cy="741" r="12" fill="black" fill-opacity="0.03"/>
<circle cx="1528" cy="741" r="12" fill="black" fill-opacity="0.03"/>
<circle cx="1363" cy="774" r="12" fill="black" fill-opacity="0.03"/>
<circle cx="1396" cy="774" r="12" fill="black" fill-opacity="0.03"/>
<circle cx="1429" cy="774" r="12" fill="black" fill-opacity="0.03"/>
<circle cx="1462" cy="774" r="12" fill="black" fill-opacity="0.03"/>
<circle cx="1495" cy="774" r="12" fill="black" fill-opacity="0.03"/>
<circle cx="1528" cy="774" r="12" fill="black" fill-opacity="0.03"/>
<circle cx="1266" cy="12" r="12" fill="black" fill-opacity="0.03"/>
<circle cx="1299" cy="12" r="12" fill="black" fill-opacity="0.03"/>
<circle cx="1332" cy="12" r="12" fill="black" fill-opacity="0.03"/>
<circle cx="1365" cy="12" r="12" fill="black" fill-opacity="0.03"/>
<circle cx="1398" cy="12" r="12" fill="black" fill-opacity="0.03"/>
<circle cx="1431" cy="12" r="12" fill="black" fill-opacity="0.03"/>
<circle cx="1266" cy="45" r="12" fill="black" fill-opacity="0.03"/>
<circle cx="1299" cy="45" r="12" fill="black" fill-opacity="0.03"/>
<circle cx="1332" cy="45" r="12" fill="black" fill-opacity="0.03"/>
<circle cx="1365" cy="45" r="12" fill="black" fill-opacity="0.03"/>
<circle cx="1398" cy="45" r="12" fill="black" fill-opacity="0.03"/>
<circle cx="1431" cy="45" r="12" fill="black" fill-opacity="0.03"/>
<circle cx="1266" cy="78" r="12" fill="black" fill-opacity="0.03"/>
<circle cx="1299" cy="78" r="12" fill="black" fill-opacity="0.03"/>
<circle cx="1332" cy="78" r="12" fill="black" fill-opacity="0.03"/>
<circle cx="1365" cy="78" r="12" fill="black" fill-opacity="0.03"/>
<circle cx="1398" cy="78" r="12" fill="black" fill-opacity="0.03"/>
<circle cx="1431" cy="78" r="12" fill="black" fill-opacity="0.03"/>
<circle cx="1266" cy="111" r="12" fill="black" fill-opacity="0.03"/>
<circle cx="1299" cy="111" r="12" fill="black" fill-opacity="0.03"/>
<circle cx="1332" cy="111" r="12" fill="black" fill-opacity="0.03"/>
<circle cx="1365" cy="111" r="12" fill="black" fill-opacity="0.03"/>
<circle cx="1398" cy="111" r="12" fill="black" fill-opacity="0.03"/>
<circle cx="1431" cy="111" r="12" fill="black" fill-opacity="0.03"/>
</svg>
