<svg width="1924" height="735" viewBox="0 0 1924 735" fill="none" xmlns="http://www.w3.org/2000/svg">
<circle cx="460" cy="353" r="12" fill="black" fill-opacity="0.03"/>
<circle cx="493" cy="353" r="12" fill="black" fill-opacity="0.03"/>
<circle cx="526" cy="353" r="12" fill="black" fill-opacity="0.03"/>
<circle cx="559" cy="353" r="12" fill="black" fill-opacity="0.03"/>
<circle cx="592" cy="353" r="12" fill="black" fill-opacity="0.03"/>
<circle cx="625" cy="353" r="12" fill="black" fill-opacity="0.03"/>
<circle cx="460" cy="386" r="12" fill="black" fill-opacity="0.03"/>
<circle cx="493" cy="386" r="12" fill="black" fill-opacity="0.03"/>
<circle cx="526" cy="386" r="12" fill="black" fill-opacity="0.03"/>
<circle cx="559" cy="386" r="12" fill="black" fill-opacity="0.03"/>
<circle cx="592" cy="386" r="12" fill="black" fill-opacity="0.03"/>
<circle cx="625" cy="386" r="12" fill="black" fill-opacity="0.03"/>
<circle cx="659" cy="353" r="12" fill="black" fill-opacity="0.03"/>
<circle cx="692" cy="353" r="12" fill="black" fill-opacity="0.03"/>
<circle cx="725" cy="353" r="12" fill="black" fill-opacity="0.03"/>
<circle cx="758" cy="353" r="12" fill="black" fill-opacity="0.03"/>
<circle cx="791" cy="353" r="12" fill="black" fill-opacity="0.03"/>
<circle cx="824" cy="353" r="12" fill="black" fill-opacity="0.03"/>
<circle cx="659" cy="386" r="12" fill="black" fill-opacity="0.03"/>
<circle cx="692" cy="386" r="12" fill="black" fill-opacity="0.03"/>
<circle cx="725" cy="386" r="12" fill="black" fill-opacity="0.03"/>
<circle cx="758" cy="386" r="12" fill="black" fill-opacity="0.03"/>
<circle cx="791" cy="386" r="12" fill="black" fill-opacity="0.03"/>
<circle cx="824" cy="386" r="12" fill="black" fill-opacity="0.03"/>
<circle cx="61" cy="353" r="12" fill="black" fill-opacity="0.03"/>
<circle cx="94" cy="353" r="12" fill="black" fill-opacity="0.03"/>
<circle cx="127" cy="353" r="12" fill="black" fill-opacity="0.03"/>
<circle cx="160" cy="353" r="12" fill="black" fill-opacity="0.03"/>
<circle cx="193" cy="353" r="12" fill="black" fill-opacity="0.03"/>
<circle cx="226" cy="353" r="12" fill="black" fill-opacity="0.03"/>
<circle cx="61" cy="386" r="12" fill="black" fill-opacity="0.03"/>
<circle cx="94" cy="386" r="12" fill="black" fill-opacity="0.03"/>
<circle cx="127" cy="386" r="12" fill="black" fill-opacity="0.03"/>
<circle cx="160" cy="386" r="12" fill="black" fill-opacity="0.03"/>
<circle cx="193" cy="386" r="12" fill="black" fill-opacity="0.03"/>
<circle cx="226" cy="386" r="12" fill="black" fill-opacity="0.03"/>
<circle cx="260" cy="353" r="12" fill="black" fill-opacity="0.03"/>
<circle cx="293" cy="353" r="12" fill="black" fill-opacity="0.03"/>
<circle cx="326" cy="353" r="12" fill="black" fill-opacity="0.03"/>
<circle cx="359" cy="353" r="12" fill="black" fill-opacity="0.03"/>
<circle cx="392" cy="353" r="12" fill="black" fill-opacity="0.03"/>
<circle cx="425" cy="353" r="12" fill="black" fill-opacity="0.03"/>
<circle cx="260" cy="386" r="12" fill="black" fill-opacity="0.03"/>
<circle cx="293" cy="386" r="12" fill="black" fill-opacity="0.03"/>
<circle cx="326" cy="386" r="12" fill="black" fill-opacity="0.03"/>
<circle cx="359" cy="386" r="12" fill="black" fill-opacity="0.03"/>
<circle cx="392" cy="386" r="12" fill="black" fill-opacity="0.03"/>
<circle cx="425" cy="386" r="12" fill="black" fill-opacity="0.03"/>
<circle cx="1498" cy="683" r="12" fill="black" fill-opacity="0.03"/>
<circle cx="1531" cy="683" r="12" fill="black" fill-opacity="0.03"/>
<circle cx="1564" cy="683" r="12" fill="black" fill-opacity="0.03"/>
<circle cx="1597" cy="683" r="12" fill="black" fill-opacity="0.03"/>
<circle cx="1630" cy="683" r="12" fill="black" fill-opacity="0.03"/>
<circle cx="1663" cy="683" r="12" fill="black" fill-opacity="0.03"/>
<circle cx="1498" cy="717" r="12" fill="black" fill-opacity="0.03"/>
<circle cx="1531" cy="717" r="12" fill="black" fill-opacity="0.03"/>
<circle cx="1564" cy="717" r="12" fill="black" fill-opacity="0.03"/>
<circle cx="1597" cy="717" r="12" fill="black" fill-opacity="0.03"/>
<circle cx="1630" cy="717" r="12" fill="black" fill-opacity="0.03"/>
<circle cx="1663" cy="717" r="12" fill="black" fill-opacity="0.03"/>
<circle cx="1697" cy="683" r="12" fill="black" fill-opacity="0.03"/>
<circle cx="1730" cy="683" r="12" fill="black" fill-opacity="0.03"/>
<circle cx="1763" cy="683" r="12" fill="black" fill-opacity="0.03"/>
<circle cx="1796" cy="683" r="12" fill="black" fill-opacity="0.03"/>
<circle cx="1829" cy="683" r="12" fill="black" fill-opacity="0.03"/>
<circle cx="1862" cy="683" r="12" fill="black" fill-opacity="0.03"/>
<circle cx="1697" cy="717" r="12" fill="black" fill-opacity="0.03"/>
<circle cx="1730" cy="717" r="12" fill="black" fill-opacity="0.03"/>
<circle cx="1763" cy="717" r="12" fill="black" fill-opacity="0.03"/>
<circle cx="1796" cy="717" r="12" fill="black" fill-opacity="0.03"/>
<circle cx="1829" cy="717" r="12" fill="black" fill-opacity="0.03"/>
<circle cx="1862" cy="717" r="12" fill="black" fill-opacity="0.03"/>
<circle cx="1099" cy="683" r="12" fill="black" fill-opacity="0.03"/>
<circle cx="1132" cy="683" r="12" fill="black" fill-opacity="0.03"/>
<circle cx="1165" cy="683" r="12" fill="black" fill-opacity="0.03"/>
<circle cx="1198" cy="683" r="12" fill="black" fill-opacity="0.03"/>
<circle cx="1231" cy="683" r="12" fill="black" fill-opacity="0.03"/>
<circle cx="1264" cy="683" r="12" fill="black" fill-opacity="0.03"/>
<circle cx="1099" cy="717" r="12" fill="black" fill-opacity="0.03"/>
<circle cx="1132" cy="717" r="12" fill="black" fill-opacity="0.03"/>
<circle cx="1165" cy="717" r="12" fill="black" fill-opacity="0.03"/>
<circle cx="1198" cy="717" r="12" fill="black" fill-opacity="0.03"/>
<circle cx="1231" cy="717" r="12" fill="black" fill-opacity="0.03"/>
<circle cx="1264" cy="717" r="12" fill="black" fill-opacity="0.03"/>
<circle cx="1298" cy="683" r="12" fill="black" fill-opacity="0.03"/>
<circle cx="1331" cy="683" r="12" fill="black" fill-opacity="0.03"/>
<circle cx="1364" cy="683" r="12" fill="black" fill-opacity="0.03"/>
<circle cx="1397" cy="683" r="12" fill="black" fill-opacity="0.03"/>
<circle cx="1430" cy="683" r="12" fill="black" fill-opacity="0.03"/>
<circle cx="1463" cy="683" r="12" fill="black" fill-opacity="0.03"/>
<circle cx="1298" cy="717" r="12" fill="black" fill-opacity="0.03"/>
<circle cx="1331" cy="717" r="12" fill="black" fill-opacity="0.03"/>
<circle cx="1364" cy="717" r="12" fill="black" fill-opacity="0.03"/>
<circle cx="1397" cy="717" r="12" fill="black" fill-opacity="0.03"/>
<circle cx="1430" cy="717" r="12" fill="black" fill-opacity="0.03"/>
<circle cx="1463" cy="717" r="12" fill="black" fill-opacity="0.03"/>
<circle cx="1498" cy="18" r="12" fill="black" fill-opacity="0.03"/>
<circle cx="1531" cy="18" r="12" fill="black" fill-opacity="0.03"/>
<circle cx="1564" cy="18" r="12" fill="black" fill-opacity="0.03"/>
<circle cx="1597" cy="18" r="12" fill="black" fill-opacity="0.03"/>
<circle cx="1630" cy="18" r="12" fill="black" fill-opacity="0.03"/>
<circle cx="1663" cy="18" r="12" fill="black" fill-opacity="0.03"/>
<circle cx="1498" cy="52" r="12" fill="black" fill-opacity="0.03"/>
<circle cx="1531" cy="52" r="12" fill="black" fill-opacity="0.03"/>
<circle cx="1564" cy="52" r="12" fill="black" fill-opacity="0.03"/>
<circle cx="1597" cy="52" r="12" fill="black" fill-opacity="0.03"/>
<circle cx="1630" cy="52" r="12" fill="black" fill-opacity="0.03"/>
<circle cx="1663" cy="52" r="12" fill="black" fill-opacity="0.03"/>
<circle cx="1697" cy="18" r="12" fill="black" fill-opacity="0.03"/>
<circle cx="1730" cy="18" r="12" fill="black" fill-opacity="0.03"/>
<circle cx="1763" cy="18" r="12" fill="black" fill-opacity="0.03"/>
<circle cx="1796" cy="18" r="12" fill="black" fill-opacity="0.03"/>
<circle cx="1829" cy="18" r="12" fill="black" fill-opacity="0.03"/>
<circle cx="1862" cy="18" r="12" fill="black" fill-opacity="0.03"/>
<circle cx="1697" cy="52" r="12" fill="black" fill-opacity="0.03"/>
<circle cx="1730" cy="52" r="12" fill="black" fill-opacity="0.03"/>
<circle cx="1763" cy="52" r="12" fill="black" fill-opacity="0.03"/>
<circle cx="1796" cy="52" r="12" fill="black" fill-opacity="0.03"/>
<circle cx="1829" cy="52" r="12" fill="black" fill-opacity="0.03"/>
<circle cx="1862" cy="52" r="12" fill="black" fill-opacity="0.03"/>
<circle cx="1099" cy="18" r="12" fill="black" fill-opacity="0.03"/>
<circle cx="1132" cy="18" r="12" fill="black" fill-opacity="0.03"/>
<circle cx="1165" cy="18" r="12" fill="black" fill-opacity="0.03"/>
<circle cx="1198" cy="18" r="12" fill="black" fill-opacity="0.03"/>
<circle cx="1231" cy="18" r="12" fill="black" fill-opacity="0.03"/>
<circle cx="1264" cy="18" r="12" fill="black" fill-opacity="0.03"/>
<circle cx="1099" cy="52" r="12" fill="black" fill-opacity="0.03"/>
<circle cx="1132" cy="52" r="12" fill="black" fill-opacity="0.03"/>
<circle cx="1165" cy="52" r="12" fill="black" fill-opacity="0.03"/>
<circle cx="1198" cy="52" r="12" fill="black" fill-opacity="0.03"/>
<circle cx="1231" cy="52" r="12" fill="black" fill-opacity="0.03"/>
<circle cx="1264" cy="52" r="12" fill="black" fill-opacity="0.03"/>
<circle cx="1298" cy="18" r="12" fill="black" fill-opacity="0.03"/>
<circle cx="1331" cy="18" r="12" fill="black" fill-opacity="0.03"/>
<circle cx="1364" cy="18" r="12" fill="black" fill-opacity="0.03"/>
<circle cx="1397" cy="18" r="12" fill="black" fill-opacity="0.03"/>
<circle cx="1430" cy="18" r="12" fill="black" fill-opacity="0.03"/>
<circle cx="1463" cy="18" r="12" fill="black" fill-opacity="0.03"/>
<circle cx="1298" cy="52" r="12" fill="black" fill-opacity="0.03"/>
<circle cx="1331" cy="52" r="12" fill="black" fill-opacity="0.03"/>
<circle cx="1364" cy="52" r="12" fill="black" fill-opacity="0.03"/>
<circle cx="1397" cy="52" r="12" fill="black" fill-opacity="0.03"/>
<circle cx="1430" cy="52" r="12" fill="black" fill-opacity="0.03"/>
<circle cx="1463" cy="52" r="12" fill="black" fill-opacity="0.03"/>
</svg>
