<svg width="230" height="55" viewBox="0 0 230 55" fill="none" xmlns="http://www.w3.org/2000/svg">
<path d="M94.864 41V24.926L89.05 36.63H85.63L79.816 24.926V41H73.584V14.02H80.348L87.34 28.118L94.37 14.02H101.096V41H94.864ZM114.987 41.38C112.733 41.38 110.807 40.9113 109.211 39.974C107.615 39.0367 106.387 37.7953 105.525 36.25C104.689 34.7047 104.271 33.0327 104.271 31.234C104.271 29.3087 104.689 27.548 105.525 25.952C106.361 24.356 107.577 23.0767 109.173 22.114C110.769 21.1513 112.707 20.67 114.987 20.67C117.242 20.67 119.167 21.1513 120.763 22.114C122.359 23.0767 123.563 24.3433 124.373 25.914C125.209 27.4847 125.627 29.1693 125.627 30.968C125.627 31.7027 125.577 32.3487 125.475 32.906H110.731C110.833 34.2487 111.314 35.2747 112.175 35.984C113.062 36.668 114.063 37.01 115.177 37.01C116.064 37.01 116.913 36.7947 117.723 36.364C118.534 35.9333 119.091 35.3507 119.395 34.616L124.563 36.06C123.778 37.6307 122.549 38.91 120.877 39.898C119.231 40.886 117.267 41.38 114.987 41.38ZM110.579 29.182H119.243C119.117 27.9153 118.648 26.9147 117.837 26.18C117.052 25.42 116.077 25.04 114.911 25.04C113.746 25.04 112.758 25.42 111.947 26.18C111.162 26.94 110.706 27.9407 110.579 29.182ZM127.243 31.006C127.243 29.0807 127.61 27.3453 128.345 25.8C129.105 24.2293 130.144 22.988 131.461 22.076C132.804 21.1387 134.336 20.67 136.059 20.67C137.452 20.67 138.706 21.012 139.821 21.696C140.961 22.3547 141.835 23.2287 142.443 24.318V13.26H148.523V34.236C148.523 34.844 148.612 35.2747 148.789 35.528C148.992 35.7813 149.334 35.9207 149.815 35.946V41C148.751 41.2027 147.89 41.304 147.231 41.304C146.192 41.304 145.344 41.076 144.685 40.62C144.026 40.164 143.634 39.5307 143.507 38.72L143.393 37.694C142.684 38.9353 141.721 39.86 140.505 40.468C139.289 41.076 138.01 41.38 136.667 41.38C134.843 41.38 133.222 40.9367 131.803 40.05C130.384 39.138 129.27 37.8967 128.459 36.326C127.648 34.7553 127.243 32.982 127.243 31.006ZM142.481 33.476V29.296C142.101 28.2827 141.48 27.4593 140.619 26.826C139.783 26.1673 138.909 25.838 137.997 25.838C137.136 25.838 136.363 26.0787 135.679 26.56C134.995 27.0413 134.463 27.6873 134.083 28.498C133.703 29.3087 133.513 30.1827 133.513 31.12C133.513 32.5893 133.956 33.818 134.843 34.806C135.755 35.7687 136.908 36.25 138.301 36.25C139.137 36.25 139.935 36.0093 140.695 35.528C141.48 35.0213 142.076 34.3373 142.481 33.476ZM160.884 41.38C159.162 41.38 157.49 41.1013 155.868 40.544C154.272 39.9613 152.917 39.138 151.802 38.074L153.892 34.236C156.35 36.0347 158.617 36.934 160.694 36.934C161.48 36.934 162.088 36.8073 162.518 36.554C162.949 36.3007 163.164 35.908 163.164 35.376C163.164 34.8187 162.873 34.426 162.29 34.198C161.708 33.9447 160.846 33.6533 159.706 33.324C158.186 32.8173 156.92 32.3233 155.906 31.842C154.893 31.3607 154.133 30.778 153.626 30.094C153.12 29.41 152.866 28.498 152.866 27.358C152.866 25.3567 153.614 23.748 155.108 22.532C156.603 21.2907 158.63 20.67 161.188 20.67C162.556 20.67 163.886 20.8853 165.178 21.316C166.496 21.7467 167.724 22.4687 168.864 23.482L166.508 27.282C165.368 26.4967 164.355 25.9267 163.468 25.572C162.582 25.2173 161.72 25.04 160.884 25.04C160.226 25.04 159.668 25.1667 159.212 25.42C158.756 25.648 158.528 26.0533 158.528 26.636C158.528 27.1933 158.782 27.6113 159.288 27.89C159.795 28.1433 160.58 28.422 161.644 28.726C163.266 29.2073 164.621 29.7013 165.71 30.208C166.825 30.6893 167.648 31.2973 168.18 32.032C168.738 32.7413 169.016 33.6913 169.016 34.882C169.016 36.9087 168.282 38.5047 166.812 39.67C165.343 40.81 163.367 41.38 160.884 41.38ZM184.906 39.936C184.07 40.2907 183.108 40.62 182.018 40.924C180.954 41.228 179.878 41.38 178.788 41.38C177.775 41.38 176.85 41.2153 176.014 40.886C175.178 40.5313 174.507 39.9613 174 39.176C173.494 38.3907 173.24 37.352 173.24 36.06V25.648H170.694V21.05H173.24V14.704H179.32V21.05H183.386V25.648H179.32V33.97C179.32 34.6287 179.485 35.11 179.814 35.414C180.144 35.6927 180.562 35.832 181.068 35.832C181.524 35.832 181.993 35.756 182.474 35.604C182.956 35.452 183.374 35.2873 183.728 35.11L184.906 39.936ZM196.591 41.38C194.336 41.38 192.411 40.9113 190.815 39.974C189.219 39.0367 187.99 37.7953 187.129 36.25C186.293 34.7047 185.875 33.0327 185.875 31.234C185.875 29.3087 186.293 27.548 187.129 25.952C187.965 24.356 189.181 23.0767 190.777 22.114C192.373 21.1513 194.311 20.67 196.591 20.67C198.846 20.67 200.771 21.1513 202.367 22.114C203.963 23.0767 205.166 24.3433 205.977 25.914C206.813 27.4847 207.231 29.1693 207.231 30.968C207.231 31.7027 207.18 32.3487 207.079 32.906H192.335C192.436 34.2487 192.918 35.2747 193.779 35.984C194.666 36.668 195.666 37.01 196.781 37.01C197.668 37.01 198.516 36.7947 199.327 36.364C200.138 35.9333 200.695 35.3507 200.999 34.616L206.167 36.06C205.382 37.6307 204.153 38.91 202.481 39.898C200.834 40.886 198.871 41.38 196.591 41.38ZM192.183 29.182H200.847C200.72 27.9153 200.252 26.9147 199.441 26.18C198.656 25.42 197.68 25.04 196.515 25.04C195.35 25.04 194.362 25.42 193.551 26.18C192.766 26.94 192.31 27.9407 192.183 29.182ZM222.64 26.256C221.171 26.2813 219.841 26.522 218.65 26.978C217.46 27.434 216.598 28.118 216.066 29.03V41H209.986V21.05H215.572V25.078C216.256 23.7353 217.143 22.684 218.232 21.924C219.322 21.164 220.462 20.7713 221.652 20.746C222.159 20.746 222.488 20.7587 222.64 20.784V26.256Z" fill="#676767"/>
<rect width="55" height="55" rx="7" fill="#F4A261"/>
<rect x="20.083" y="10" width="9.16667" height="24.75" rx="2" fill="white"/>
<rect x="10" y="10" width="5.39216" height="36.1275" rx="2" fill="white"/>
<rect x="33.7256" y="10" width="12.6446" height="36.1275" rx="2" fill="white"/>
</svg>
