<svg viewBox="0 0 783 679" fill="none" xmlns="http://www.w3.org/2000/svg">
<g clip-path="url(#clip0)">
<path fill-rule="evenodd" clip-rule="evenodd" d="M49.5886 482.236C93.2439 481.552 114.782 651.331 111.114 663.535C110.275 666.313 108.284 669.362 105.729 672.275H67.325C61.5252 658.924 53.2174 631.739 46.6887 601.708L57.6613 595.104L43.8045 587.588C40.7524 572.134 38.6059 556.488 37.3777 540.743L48.1465 538.066L42.2213 528.777L49.0243 527.088L37.3855 513.5C38.6395 498.763 42.2291 487.269 49.5886 482.236Z" fill="#F28F32"/>
<path d="M50.6407 486.134L90.3853 676.148" stroke="#4F4F4F" stroke-width="2" stroke-linecap="round" stroke-linejoin="round"/>
<path fill-rule="evenodd" clip-rule="evenodd" d="M148.422 444.529C201.718 465.929 164.724 654.347 154.089 674.632H97.7055C97.6272 674.471 97.5096 674.345 97.4391 674.184C91.169 660.444 92.6895 567.473 109.681 504.042L123.695 504.388L114.133 489.373C122.417 464.738 133.609 446.809 148.422 444.529Z" fill="#F28F32"/>
<path d="M148.548 444.588L122.739 674.75" stroke="#4F4F4F" stroke-width="2" stroke-linecap="round" stroke-linejoin="round"/>
<path fill-rule="evenodd" clip-rule="evenodd" d="M114.162 577.632C108.676 581.923 92.0679 596.389 91.1666 600.316C90.2652 604.243 99.3333 630.397 101.277 632.289C103.221 634.181 122.486 639.205 123.403 640.548C124.32 641.891 123.583 645.995 122.666 648.014C121.749 650.032 92.2795 647.752 92.2795 647.752C92.2795 647.752 54.0242 607.03 54.5023 604.006C54.9804 600.983 97.8991 559.248 97.8991 559.248C97.8991 559.248 119.633 573.351 114.162 577.632Z" fill="#FFC7AE"/>
<path fill-rule="evenodd" clip-rule="evenodd" d="M71.6747 585.334C73.1403 596.009 78.3288 612.113 94.5917 615.213C97.1154 623.134 100.219 631.258 101.285 632.289C103.229 634.172 122.486 639.205 123.403 640.548C124.32 641.891 123.567 645.995 122.666 648.013C121.764 650.032 92.2875 647.751 92.2875 647.751C92.2875 647.751 54.0089 607.046 54.4948 604.023C54.6986 602.748 62.8026 594.32 71.6747 585.334Z" fill="#1D2F3D"/>
<path fill-rule="evenodd" clip-rule="evenodd" d="M304.004 613.456C305.947 619.013 326.787 672.217 328.997 673.331C331.208 674.446 392.944 642 393.414 638.8C393.885 635.599 391.063 628.809 388.837 629.299C365.254 634.366 336.561 636.097 333.434 629.687C330.306 623.277 326.286 608.38 326.286 608.38C326.286 608.38 302.028 607.941 304.004 613.456Z" fill="#FFC7AE"/>
<path fill-rule="evenodd" clip-rule="evenodd" d="M388.845 629.299C391.103 628.818 393.916 635.608 393.422 638.8C392.929 641.992 331.224 674.472 329.006 673.323C328.026 672.808 323.214 661.618 318.158 649.28C337.211 652.38 347.345 642.761 351.64 633.767C364.14 633.469 376.591 631.974 388.845 629.299Z" fill="#1D2F3D"/>
<path fill-rule="evenodd" clip-rule="evenodd" d="M245.668 460.305C182.701 544.426 121.514 589.244 121.514 589.244L88.9408 553.775L182.991 435.865C182.991 435.865 175.279 344.844 191.613 328.148C207.946 311.452 285.264 407.414 245.668 460.305Z" fill="#1B3242"/>
<path fill-rule="evenodd" clip-rule="evenodd" d="M272.199 322.701L336.78 607.097L301.77 625.676C301.77 625.676 243.137 459.309 234.469 449.175C216.63 428.357 187.678 353.492 190.21 324.517C192.742 295.542 272.199 322.701 272.199 322.701Z" fill="#1B3242"/>
<path fill-rule="evenodd" clip-rule="evenodd" d="M159.69 342.572C158.193 347.952 153.342 359.142 157.958 379.165C149.211 393.733 153.295 403.993 173.327 406.569C176.698 402.135 180.083 399.222 183.838 392.829C185.06 387.069 184.951 378.227 185.06 375.829C185.272 370.982 176.133 349.54 177.771 340.926C179.409 332.312 161.195 337.184 159.69 342.572Z" fill="#FFC7AE"/>
<path d="M156.532 399.779C158.621 397.397 160.492 394.804 162.12 392.035" stroke="#CB5D66" stroke-width="2" stroke-linecap="round" stroke-linejoin="round"/>
<path d="M165.192 404.838C168.484 401.409 173.296 394.172 175.765 389.831" stroke="#CB5D66" stroke-width="2" stroke-linecap="round" stroke-linejoin="round"/>
<path fill-rule="evenodd" clip-rule="evenodd" d="M326.247 321.24C330.416 324.88 334.742 329.204 340.299 331.467C348.607 333.629 363.812 351.592 363.812 355.46C363.812 359.125 360.779 360.358 358.89 360.527C357.26 360.636 353.788 356.574 352.91 355.417C354.423 359.133 355.261 364.166 353.623 365.746C351.985 367.325 349.532 367.874 347.894 365.83C345.182 362.452 345.848 358.618 345.598 356.372C344.265 353.627 340.636 347.521 339.1 346.778C338.026 346.837 336.412 347.243 336.106 349.092C335.801 350.941 339.79 355.071 340.237 356.794C340.237 358.981 338.026 361.76 336.106 361.211C333.927 360.586 327.187 353.534 325.698 351.609C323.692 349.016 322.782 343.358 321.709 341.475C320.635 339.591 316.465 335.563 315.689 334.719C314.913 333.874 322.085 317.609 326.247 321.24Z" fill="#FFC7AE"/>
<path d="M337.046 347.428C341.984 343.012 349.688 352.056 353.192 355.704" stroke="#CB5D66" stroke-width="2" stroke-linecap="round" stroke-linejoin="round"/>
<path fill-rule="evenodd" clip-rule="evenodd" d="M261.516 176.492C277.661 193.12 285.57 234.763 289.865 261.568C304.027 276.583 332.548 309.831 332.524 317.812C332.501 325.792 318.581 339.119 315.039 339.026C311.496 338.933 278.516 300.043 273.39 295.5C268.264 290.956 257.668 172.514 261.516 176.492Z" fill="#A5143A"/>
<path fill-rule="evenodd" clip-rule="evenodd" d="M267.488 108.087C269.659 105.984 273.343 105.173 273.343 93.6035C273.343 81.2821 259.705 70.084 242.337 70.084C215.063 70.084 207.139 95.8583 206.198 104.971C205.258 114.083 206.739 135.643 204.843 144.401C201.033 162.321 185.037 176.154 185.037 206.1C185.037 215.204 221.685 207.316 228.245 206.261C234.806 205.205 242.463 158.326 242.463 158.326C242.463 158.326 265.317 110.19 267.488 108.087Z" fill="black"/>
<path fill-rule="evenodd" clip-rule="evenodd" d="M225.832 135.643C227.141 141.335 227.329 165.682 226.357 173.806C230.801 177.244 247.338 176.847 250.786 173.122C249.744 163.09 249.744 154.163 250.786 149.822C251.829 145.482 224.523 129.951 225.832 135.643Z" fill="#FFC7AE"/>
<path fill-rule="evenodd" clip-rule="evenodd" d="M274.597 117.782C274.597 98.2905 261.508 82.4897 245.355 82.4897C229.202 82.4897 216.113 98.2905 216.113 117.782C216.113 137.273 229.202 153.065 245.355 153.065C261.508 153.065 274.597 137.264 274.597 117.782Z" fill="#FFC7AE"/>
<path fill-rule="evenodd" clip-rule="evenodd" d="M239.626 151.207C240.057 145.177 244.657 132.079 247.056 130.517C249.454 128.954 268.28 126.556 274.597 116.422C277.81 119.285 280.444 124.605 280.185 125.711C279.652 128 274.613 131.876 274.613 131.876C274.613 131.876 273.476 146.554 263.64 153.099C256.531 157.845 242.463 153.969 239.626 151.207Z" fill="white"/>
<path d="M247.675 132.476C244.391 126.565 235.597 118.829 230.918 116.667" stroke="white" stroke-width="2" stroke-linecap="round" stroke-linejoin="round"/>
<path d="M243.356 141.284C243.356 141.284 224.742 144.35 221.725 135.643" stroke="white" stroke-width="2" stroke-linecap="round" stroke-linejoin="round"/>
<path fill-rule="evenodd" clip-rule="evenodd" d="M261.391 84.7111C257.558 88.4438 255.865 97.7672 252.362 102.446C246.68 110.046 235.754 111.338 232.392 121.363C229.03 131.387 211.434 123.288 211.434 123.288L213.692 99.4562L226.725 84.7702L246.993 78.5293C246.993 78.5293 265.192 80.9699 261.391 84.7111Z" fill="black"/>
<path fill-rule="evenodd" clip-rule="evenodd" d="M237.416 126.556C237.416 124.174 236.76 121.846 235.532 119.865C234.304 117.885 232.558 116.341 230.516 115.43C228.474 114.518 226.227 114.28 224.059 114.745C221.891 115.209 219.899 116.356 218.336 118.04C216.773 119.725 215.709 121.87 215.278 124.206C214.846 126.542 215.068 128.964 215.914 131.164C216.759 133.365 218.192 135.246 220.03 136.569C221.868 137.892 224.029 138.599 226.239 138.599C229.203 138.596 232.044 137.327 234.14 135.069C236.235 132.811 237.413 129.749 237.416 126.556Z" fill="#FFC7AE"/>
<path fill-rule="evenodd" clip-rule="evenodd" d="M261.916 115.333C261.916 112.892 260.921 110.916 259.698 110.916C258.475 110.916 257.472 112.892 257.472 115.333C257.472 117.773 258.467 119.75 259.698 119.75C260.928 119.75 261.916 117.773 261.916 115.333Z" fill="#CB5D66"/>
<path fill-rule="evenodd" clip-rule="evenodd" d="M238.285 160.606C190.296 160.606 156.861 258.654 153.381 273.525C149.901 288.397 152.597 342.623 153.843 346.744C158.601 347.749 175.789 344.354 179.363 342.04C182.498 336.399 183.65 293.642 184.927 289.765C185.827 286.503 187.415 283.508 189.567 281.016C188.172 292.518 189.685 320.759 190.609 324.88C191.534 329.001 266.023 328.807 271.673 326.256C275.216 324.66 277.716 322.997 278.218 319.146C279.002 312.787 276.603 308.581 277.254 303.269C277.904 297.957 280.671 297.138 281.51 288.49C282.38 279.437 276.713 267.377 278.57 258.443C288.383 211.175 264.855 160.606 238.285 160.606Z" fill="#A5143A"/>
<path fill-rule="evenodd" clip-rule="evenodd" d="M248.608 160.286H227.995C226.78 160.286 225.793 161.789 225.793 163.664V172.835C225.793 174.684 226.78 176.213 227.995 176.213H248.608C249.83 176.213 250.818 174.71 250.818 172.835V163.638C250.818 161.789 249.83 160.286 248.608 160.286Z" fill="#A5143A"/>
<path d="M329.013 611.218L251.735 335.994" stroke="#8D8D8D" stroke-width="2" stroke-linecap="round" stroke-linejoin="round"/>
<path d="M296.056 609.597L332.893 589.937" stroke="#8D8D8D" stroke-width="2" stroke-linecap="round" stroke-linejoin="round"/>
<path d="M255.089 462.417C258.828 464.739 266.775 463.506 270.647 460.728" stroke="#8D8D8D" stroke-width="2" stroke-linecap="round" stroke-linejoin="round"/>
<path d="M265.356 438.686L248.999 455.297" stroke="#8D8D8D" stroke-width="2" stroke-linecap="round" stroke-linejoin="round"/>
<path d="M242.337 465.456C238.677 456.741 235.895 450.83 234.5 449.166C218.597 430.587 193.854 369.081 190.468 335.419" stroke="#8D8D8D" stroke-width="2" stroke-linecap="round" stroke-linejoin="round"/>
<path d="M110.533 577.277C110.533 577.277 215.949 468.843 220.847 464.595C221.161 456.994 221.631 442.19 226.514 437.646" stroke="#8D8D8D" stroke-width="2" stroke-linecap="round" stroke-linejoin="round"/>
<path d="M185.327 442.731C188.705 445.222 194.481 454.115 194.857 459.25" stroke="#8D8D8D" stroke-width="2" stroke-linecap="round" stroke-linejoin="round"/>
<path d="M189.167 439.302C191.056 439.877 196.511 443.221 197.906 445.932" stroke="#8D8D8D" stroke-width="2" stroke-linecap="round" stroke-linejoin="round"/>
<path d="M189.003 434.446L195.845 433.897L207.194 429.278" stroke="#8D8D8D" stroke-width="2" stroke-linecap="round" stroke-linejoin="round"/>
<path d="M189.238 434.428L195.508 433.923" stroke="#8D8D8D" stroke-width="2" stroke-linecap="round" stroke-linejoin="round"/>
<path d="M99.1294 540.98L135.872 577.784" stroke="#8D8D8D" stroke-width="2" stroke-linecap="round" stroke-linejoin="round"/>
<path d="M277.121 344.388C277.121 344.388 249.838 349.709 232.972 347.226" stroke="#8D8D8D" stroke-width="2" stroke-linecap="round" stroke-linejoin="round"/>
<path d="M273.923 327.658C276.274 326.315 277.842 324.652 278.218 321.671C279.002 315.32 276.603 311.106 277.254 305.802C277.904 300.499 280.671 299.671 281.51 291.024C282.38 281.97 276.713 269.911 278.57 260.976C282.005 243.907 281.526 226.193 277.175 209.368" stroke="#FF3274" stroke-width="2" stroke-linecap="round" stroke-linejoin="round"/>
<path d="M306.919 331.948C309.788 330.183 324.491 315.751 328.01 307.998" stroke="#FF3274" stroke-width="2" stroke-linecap="round" stroke-linejoin="round"/>
<path d="M310.767 328.697L318.377 337.489" stroke="#FF3274" stroke-width="2" stroke-linecap="round" stroke-linejoin="round"/>
<path d="M315.658 324.635L323.26 333.435" stroke="#FF3274" stroke-width="2" stroke-linecap="round" stroke-linejoin="round"/>
<path d="M320.407 319.906L327.594 328.216" stroke="#FF3274" stroke-width="2" stroke-linecap="round" stroke-linejoin="round"/>
<path d="M324.209 314.543L331.215 322.642" stroke="#FF3274" stroke-width="2" stroke-linecap="round" stroke-linejoin="round"/>
<path d="M152.613 335.935L181.612 332.557" stroke="#FF3274" stroke-width="2" stroke-linecap="round" stroke-linejoin="round"/>
<path d="M157.402 335.377L158.186 349.371" stroke="#FF3274" stroke-width="2" stroke-linecap="round" stroke-linejoin="round"/>
<path d="M164.652 334.524L165.765 348.391" stroke="#FF3274" stroke-width="2" stroke-linecap="round" stroke-linejoin="round"/>
<path d="M171.784 333.688L172.623 346.93" stroke="#FF3274" stroke-width="2" stroke-linecap="round" stroke-linejoin="round"/>
<path d="M151.045 299.739C155.355 299.735 159.531 298.119 162.858 295.168C166.186 292.216 168.46 288.112 169.293 283.556C170.125 278.999 169.464 274.272 167.423 270.182C165.382 266.092 162.086 262.892 158.099 261.128" stroke="#FF3274" stroke-width="2" stroke-linecap="round" stroke-linejoin="round"/>
<path d="M189.56 283.55C192.13 279.007 222.054 228.133 223.606 226.124" stroke="#FF3274" stroke-width="2" stroke-linecap="round" stroke-linejoin="round"/>
<path d="M230.393 226.367L223.575 225.929" stroke="#FF3274" stroke-width="2" stroke-linecap="round" stroke-linejoin="round"/>
<path d="M229.397 234.526L223.653 225.938" stroke="#FF3274" stroke-width="2" stroke-linecap="round" stroke-linejoin="round"/>
<path d="M224.57 238.985L223.684 226.064" stroke="#FF3274" stroke-width="2" stroke-linecap="round" stroke-linejoin="round"/>
<path d="M263.789 305.701L242.745 294.63" stroke="#FF3274" stroke-width="2" stroke-linecap="round" stroke-linejoin="round"/>
<path d="M243.106 291.648L270.858 297.653" stroke="#FF3274" stroke-width="2" stroke-linecap="round" stroke-linejoin="round"/>
<path d="M267.402 293.11L244.195 276.642" stroke="#FF3274" stroke-width="2" stroke-linecap="round" stroke-linejoin="round"/>
<path d="M237.847 176.162H248.608C249.83 176.162 250.818 174.659 250.818 172.784V163.638C250.818 161.789 249.83 160.26 248.608 160.26H227.995C227.647 160.282 227.31 160.401 227.017 160.605C226.725 160.81 226.486 161.092 226.325 161.426" stroke="#FF3274" stroke-width="2" stroke-linecap="round" stroke-linejoin="round"/>
<path d="M245.394 160.286L245.253 176.162" stroke="#FF3274" stroke-width="2" stroke-linecap="round" stroke-linejoin="round"/>
<path d="M239.328 160.505L239.258 168.224L239.187 176.382" stroke="#FF3274" stroke-width="2" stroke-linecap="round" stroke-linejoin="round"/>
<path d="M232.541 160.505L232.47 168.224L232.399 176.382" stroke="#FF3274" stroke-width="2" stroke-linecap="round" stroke-linejoin="round"/>
<path d="M324.718 664.836L392.003 632.331" stroke="white" stroke-width="2" stroke-linecap="round" stroke-linejoin="round"/>
<path d="M58.4685 599.066L94.5684 640.869L123.567 644.999" stroke="white" stroke-width="2" stroke-linecap="round" stroke-linejoin="round"/>
<path fill-rule="evenodd" clip-rule="evenodd" d="M410.046 143.446C415.023 141.183 414.396 128.465 409.105 123.592C403.815 118.719 390.53 114.505 385.303 99.3207C383.406 95.1911 377.739 101.204 376.258 111.465C375.435 135.879 399.128 148.412 410.046 143.446Z" fill="#F28F32"/>
<path d="M386.376 114.058C387.168 119.446 397.647 143.734 418.808 149.915" stroke="#4F4F4F" stroke-width="2" stroke-linecap="round" stroke-linejoin="round"/>
<path d="M274.597 116.422C277.81 119.285 280.444 124.605 280.185 125.711C279.652 128 274.613 131.876 274.613 131.876C274.613 131.876 273.476 146.554 263.64 153.099C260.184 155.396 255.089 155.632 250.434 154.999" stroke="#C9C9C9" stroke-width="2" stroke-linecap="round" stroke-linejoin="round"/>
</g>
<path d="M642.968 384.214C675.755 372.491 703.695 418.319 711.221 430.498C744.129 483.997 716.353 530.651 701.768 536.003C676.343 545.345 648.742 503.322 640.932 490.015C627.601 467.471 631.746 435.912 630.267 426.292C628.789 416.673 634.224 387.34 642.968 384.214Z" fill="#FFA858"/>
<path d="M727.738 327.404C748.413 324.395 760.393 341.802 764.095 351.748C770.088 367.978 783 376.697 783 397.434C783 445.828 754.054 484.601 741.057 484.601C712.408 484.601 701.774 453.942 701.774 441.018C701.774 419.078 707.476 392.619 706.797 386.014C705.367 372.449 697.381 331.813 727.738 327.404Z" fill="#F28F32"/>
<path d="M660.322 420.688C667.526 430.27 704.513 518.596 712.033 617.232" stroke="#333333" stroke-width="4" stroke-linecap="round" stroke-linejoin="round"/>
<path d="M684.159 417.457C683.378 420.466 676.888 438.551 671.653 444.693" stroke="#333333" stroke-width="4" stroke-linecap="round" stroke-linejoin="round"/>
<path d="M650.736 474.082C655.711 477.442 670.017 480.716 684.559 480.803" stroke="#333333" stroke-width="4" stroke-linecap="round" stroke-linejoin="round"/>
<path d="M702.737 495.219C701.392 496.933 697.508 501.928 691.594 504.351" stroke="#333333" stroke-width="4" stroke-linecap="round" stroke-linejoin="round"/>
<path d="M736.519 386.533C745.032 444.693 724.739 592.413 724.012 617.232" stroke="#333333" stroke-width="4" stroke-linecap="round" stroke-linejoin="round"/>
<path d="M757.115 391.434C754.873 394.937 745.723 403.249 738.773 405.832" stroke="#333333" stroke-width="4" stroke-linecap="round" stroke-linejoin="round"/>
<path d="M717.116 435.024C721.588 437.12 729.992 440.802 738.088 440.802" stroke="#333333" stroke-width="4" stroke-linecap="round" stroke-linejoin="round"/>
<g clip-path="url(#clip1)">
<path fill-rule="evenodd" clip-rule="evenodd" d="M485.546 613.093L480.965 638.182L507.133 651.334L518.134 625.355L485.546 613.093Z" fill="black"/>
<path fill-rule="evenodd" clip-rule="evenodd" d="M496.228 678.854L509.75 645.238C509.75 645.238 494.463 637.694 482.094 632.222C462.726 635.331 433.416 633.541 423.712 631.366C421.063 638.439 419.592 643.26 419.592 643.26L496.228 678.854Z" fill="black"/>
<path fill-rule="evenodd" clip-rule="evenodd" d="M675.583 615.825L686.846 627.042L711.185 607.776L702.595 595.549L675.583 615.825Z" fill="black"/>
<path fill-rule="evenodd" clip-rule="evenodd" d="M709.038 604.693L729.503 633.584L685.589 670.686H642.192L642.288 658.424C642.288 658.424 673.054 652.43 672.958 652.524C679.322 644.364 684.492 624.679 684.492 624.679L709.038 604.693Z" fill="black"/>
<path fill-rule="evenodd" clip-rule="evenodd" d="M633.117 348.628C633.117 348.628 647.386 462.066 652.445 474.285C657.504 486.503 706.469 596.328 706.469 596.328L671.081 623.651C671.081 623.651 592.297 495.785 588.726 488.935C586.419 484.551 580.271 458.444 580.271 458.444L519.598 636.298L479.39 616.518L521.602 353.2L633.117 348.628Z" fill="#AADAF1"/>
<path fill-rule="evenodd" clip-rule="evenodd" d="M590.38 350.392L558.787 351.685L559.017 359.888L590.38 350.392ZM559.582 381.465L563.201 508.466L580.262 458.589L559.582 381.465Z" fill="#73A9C3"/>
<path d="M580.302 458.589L556.607 369.674" stroke="#3B6B7D" stroke-width="1.7" stroke-linecap="round" stroke-linejoin="round"/>
<path d="M671.033 563.113L638.056 497.438C644.499 490.425 647.195 482.933 632.424 491.821C621.472 498.405 619.642 496.17 629.243 484.774C642.168 469.464 639.917 467.366 627.207 469.575" stroke="#3B6B7D" stroke-width="1.7" stroke-linecap="round" stroke-linejoin="round"/>
<path d="M629.863 464.104C629.863 464.104 619.237 383.889 616.167 374.016" stroke="#3B6B7D" stroke-width="1.7" stroke-linecap="round" stroke-linejoin="round"/>
<path d="M520.019 557.813C521.188 552.427 527.52 504.467 531.457 503.286C550.165 497.686 553.545 489.851 535.672 484.362C518.174 478.976 518.237 477.358 534.018 472.186C550.165 466.886 546.983 464.077 536.603 454.102C533.087 450.72 549.218 408.455 550.125 404.336" stroke="#3B6B7D" stroke-width="1.7" stroke-linecap="round" stroke-linejoin="round"/>
<path fill-rule="evenodd" clip-rule="evenodd" d="M660.685 267.163C660.582 260.561 661.902 248.796 659.166 241.723C656.43 234.65 638.366 237.699 638.366 237.699C638.366 237.699 660.781 273.73 660.685 267.163Z" fill="#AD5349"/>
<path fill-rule="evenodd" clip-rule="evenodd" d="M586.204 153.408C627.262 153.408 660.765 175.799 661.091 209.733C661.29 231.028 664.933 246.347 664.933 246.347L628.527 256.091C628.527 256.091 641.174 349.57 636.736 353.5C623.532 365.213 530.9 369.135 519.406 356.385C518.396 340.613 527.305 298.588 527.305 298.588C527.305 298.588 499.036 226.85 514.356 193.019C528.872 160.952 567.035 155.189 583.953 154.564C584.884 154.53 585.409 153.408 586.204 153.408Z" fill="#3B6B7D"/>
<path fill-rule="evenodd" clip-rule="evenodd" d="M610.535 95.0539C610.774 79.9066 596.401 59.0908 575.705 59.0908C559.487 59.0908 542.918 67.3966 542.497 80.9084C541.654 75.3256 540.85 71.8748 541.439 68.7923C537.939 68.6039 530.9 78.3225 530.9 91.3034C530.9 96.3212 534.535 115.279 544.875 115.048C555.215 114.816 594.675 130.024 594.675 130.024C594.675 130.024 597.268 134.108 600.768 133.8C604.267 133.492 610.893 126.427 610.949 122.531C611.005 118.635 607.727 111.631 607.767 109.465C607.807 107.298 610.289 110.175 610.535 95.0539Z" fill="black"/>
<path d="M561.046 197.497L553.752 226.062" stroke="black" stroke-width="3.41" stroke-linecap="round" stroke-linejoin="round"/>
<path fill-rule="evenodd" clip-rule="evenodd" d="M540.429 114.499C540.427 107.945 542.231 101.537 545.613 96.0861C548.995 90.6354 553.802 86.3868 559.427 83.8776C565.052 81.3685 571.242 80.7115 577.214 81.9898C583.186 83.2682 588.671 86.4244 592.977 91.0592C597.282 95.6941 600.214 101.599 601.402 108.028C602.589 114.457 601.979 121.121 599.648 127.176C597.317 133.231 593.37 138.407 588.307 142.047C583.244 145.688 577.291 147.63 571.203 147.628C563.041 147.628 555.213 144.138 549.442 137.925C543.671 131.712 540.429 123.286 540.429 114.499Z" fill="#AD5349"/>
<path fill-rule="evenodd" clip-rule="evenodd" d="M538.949 101.904C538.949 101.904 543.085 101.048 549.17 91.3549C556.758 92.8962 569.246 92.8277 579.888 89.3684C580.024 96.2784 584.732 107.59 591.215 106.34C597.697 105.089 600.354 88.2724 600.354 88.2724L585.074 71.0786L561.968 71.2413L545.702 83.5801L538.949 101.904Z" fill="black"/>
<path fill-rule="evenodd" clip-rule="evenodd" d="M548.136 110.561C547.85 107.915 548.622 105.655 549.854 105.5C551.087 105.346 552.328 107.359 552.614 109.996C552.901 112.633 552.129 114.902 550.888 115.056C549.648 115.211 548.447 113.198 548.136 110.561Z" fill="#90415B"/>
<path fill-rule="evenodd" clip-rule="evenodd" d="M602.279 121.393C601.483 126.659 599.893 151.704 602.414 157.03C596.791 163.127 580.302 165.756 571.664 163.11C572.34 155.883 569.556 148.819 568.069 145.933C566.581 143.048 603.05 116.118 602.279 121.393Z" fill="#AD5349"/>
<path fill-rule="evenodd" clip-rule="evenodd" d="M568.689 106.494C568.403 103.856 569.174 101.596 570.407 101.433C571.64 101.27 572.881 103.291 573.159 105.937C573.438 108.583 572.682 110.843 571.441 110.997C570.2 111.152 568.975 109.139 568.689 106.494Z" fill="#90415B"/>
<path d="M558.445 111.443C558.691 114.56 556.369 126.342 555.876 128.166C555.383 129.99 558.031 130.666 558.031 130.666" stroke="#90415B" stroke-width="1.7" stroke-linecap="round" stroke-linejoin="round"/>
<path fill-rule="evenodd" clip-rule="evenodd" d="M541.972 124.886C542.131 128.2 549.401 145.291 553.688 147.919C557.975 150.548 590.276 150.206 597.697 132.995C591.605 131.976 587.476 126.41 582.656 114.5C571.887 116.212 559.677 114.5 557.713 114.611C555.557 114.748 550.371 122.454 541.972 124.886Z" fill="white"/>
<path fill-rule="evenodd" clip-rule="evenodd" d="M606.455 188.01C623.349 187.659 656.852 185.441 660.216 200.854C663.581 216.267 666.778 242.699 664.933 246.321C663.087 249.943 628.686 254.533 628.686 254.533C625.966 247.118 610.949 205.306 606.455 188.01Z" fill="#3B6B7D"/>
<path fill-rule="evenodd" clip-rule="evenodd" d="M642.51 290.188C633.204 291.815 578.282 250.62 571.473 251.425C564.665 252.23 547.19 251.51 547.19 251.51C547.19 251.51 537.247 210.487 558.461 208.971C559.773 208.877 567.544 216.318 567.544 216.318C567.544 216.318 569.7 215.581 571.203 216.909C573.947 219.323 582.871 230.241 587.334 231.97C594.842 234.89 655.778 247.297 658.697 252.521C661.616 257.744 664.837 286.292 642.51 290.188Z" fill="#AD5349"/>
<path fill-rule="evenodd" clip-rule="evenodd" d="M496.586 226.918H539.18C544.096 226.918 549.679 230.84 551.66 235.687L581.638 308.991C583.619 313.829 581.241 317.751 576.325 317.751H533.74C528.824 317.751 523.232 313.829 521.252 308.991L491.281 235.678C489.301 230.832 491.679 226.918 496.586 226.918Z" fill="#171819"/>
<path fill-rule="evenodd" clip-rule="evenodd" d="M495.545 286.48C493.516 280.846 492.069 273.062 494.916 268.079C497.764 263.096 508.724 247.751 513.266 247.469C517.808 247.186 529.468 260.792 530.717 265.202C531.966 269.612 531.513 279.193 529.556 283.32C527.599 287.448 519.749 295.462 515.796 295.625C511.842 295.788 496.746 289.922 495.545 286.48Z" fill="#AD5349"/>
<path fill-rule="evenodd" clip-rule="evenodd" d="M494.423 275.22C493.874 266.127 490.192 256.28 487.694 249.601C486.024 245.157 487.257 241.347 490.08 240.482C492.904 239.617 501.661 252.05 501.916 261.666C502.17 271.282 494.98 284.288 494.423 275.22Z" fill="#AD5349"/>
<path d="M493.898 270.588C495.923 265.773 498.624 261.323 501.908 257.393" stroke="#81666F" stroke-width="1.7" stroke-linecap="round" stroke-linejoin="round"/>
<path d="M505.192 272.061C505.192 267.172 514.451 252.915 517.919 251.168" stroke="#905F6F" stroke-width="1.7" stroke-linecap="round" stroke-linejoin="round"/>
<path d="M514.284 277.815C514.388 275.443 521.594 262.522 525.722 259.953" stroke="#8B5D6C" stroke-width="1.7" stroke-linecap="round" stroke-linejoin="round"/>
<path d="M531.21 201.967C530.415 206.985 529.667 217.713 531.592 226.893" stroke="#AADAF1" stroke-width="1.7" stroke-linecap="round" stroke-linejoin="round"/>
<path d="M584.788 222.808L611.633 223.392" stroke="#AADAF1" stroke-width="1.7" stroke-linecap="round" stroke-linejoin="round"/>
<path fill-rule="evenodd" clip-rule="evenodd" d="M569.667 156.037C569.278 160.267 564.617 187.616 580.302 187.616C590.396 187.616 606.065 162.339 603.583 154.804" fill="#AD5349"/>
<path d="M569.667 156.037C569.278 160.267 564.617 187.616 580.302 187.616C590.396 187.616 606.065 162.339 603.583 154.804" stroke="#AADAF1" stroke-width="1.7" stroke-linecap="round" stroke-linejoin="round"/>
<path fill-rule="evenodd" clip-rule="evenodd" d="M587.333 110.767C587.332 108.27 588.018 105.829 589.306 103.752C590.593 101.676 592.423 100.057 594.566 99.0999C596.708 98.1433 599.065 97.8922 601.34 98.3782C603.615 98.8642 605.705 100.066 607.345 101.83C608.986 103.595 610.103 105.844 610.556 108.293C611.009 110.741 610.777 113.279 609.89 115.586C609.003 117.893 607.5 119.864 605.572 121.252C603.644 122.639 601.377 123.379 599.058 123.379C595.95 123.379 592.969 122.051 590.77 119.686C588.572 117.321 587.336 114.113 587.333 110.767Z" fill="#AD5349"/>
<path d="M582.776 114.748C582.776 114.748 590.181 100.191 598.024 98.1963" stroke="white" stroke-width="1.7" stroke-linecap="round" stroke-linejoin="round"/>
<path d="M597.65 133.097L603.393 122.454" stroke="white" stroke-width="1.7" stroke-linecap="round" stroke-linejoin="round"/>
<path d="M624.009 241.577C619.515 228.896 613.065 210.281 608.992 196.94" stroke="#AADAF1" stroke-width="1.7" stroke-linecap="round" stroke-linejoin="round"/>
<path d="M542.878 128.388C544.978 134.562 550.284 145.83 553.696 147.92C555.056 148.776 559.264 149.29 564.625 149.076" stroke="#C9C9C9" stroke-width="3.41" stroke-linecap="round" stroke-linejoin="round"/>
<path d="M498.75 672.561L421.7 636.906" stroke="#7C7C7C" stroke-width="1.7" stroke-linecap="round" stroke-linejoin="round"/>
<path d="M642.232 665.403L683.394 663.87L725.606 628.078" stroke="#7C7C7C" stroke-width="1.7" stroke-linecap="round" stroke-linejoin="round"/>
</g>
<path fill-rule="evenodd" clip-rule="evenodd" d="M441.004 15.5572C440.064 10.989 430.148 7.88093 425.531 10.675C420.914 13.4692 415.51 22.758 402.946 22.5816C399.452 22.9084 403.174 29.083 410.851 33.1585C429.558 40.7241 443.067 25.5788 441.004 15.5572Z" fill="#F28F32"/>
<path d="M414.821 26.1324C418.953 26.9674 438.714 25.1969 446.785 9.93441" stroke="#4F4F4F" stroke-width="2" stroke-linecap="round" stroke-linejoin="round"/>
<defs>
<clipPath id="clip0">
<rect width="419.592" height="603.273" fill="white" transform="matrix(-1 0 0 1 419.592 70.084)"/>
</clipPath>
<clipPath id="clip1">
<rect width="309.911" height="619.763" fill="white" transform="translate(419.592 59.0908)"/>
</clipPath>
</defs>
</svg>
