<svg width="434" height="434" viewBox="0 0 434 434" fill="none" xmlns="http://www.w3.org/2000/svg">
<rect width="434" height="434" rx="33" fill="#F7F7F7"/>
<path d="M183.473 103.278C183.074 103.278 182.667 103.242 182.274 103.163C181.879 103.081 181.492 102.966 181.118 102.812C180.747 102.658 180.392 102.466 180.057 102.245C179.721 102.019 179.407 101.766 179.123 101.483C178.839 101.192 178.582 100.879 178.361 100.548C178.14 100.209 177.948 99.8509 177.794 99.4832C177.64 99.1131 177.517 98.7261 177.443 98.332C177.363 97.9331 177.32 97.5317 177.32 97.1328C177.32 96.7266 177.363 96.3277 177.443 95.9264C177.517 95.5322 177.64 95.1453 177.794 94.7752C177.948 94.4075 178.14 94.0494 178.361 93.7129C178.582 93.3789 178.839 93.0593 179.123 92.7757C179.407 92.4945 179.721 92.235 180.057 92.0138C180.392 91.7927 180.747 91.6005 181.118 91.4467C181.492 91.2929 181.879 91.1775 182.274 91.0982C184.273 90.6969 186.395 91.3482 187.822 92.7757C188.106 93.0593 188.363 93.3789 188.585 93.7129C188.808 94.0494 188.998 94.4075 189.152 94.7752C189.306 95.1453 189.423 95.5322 189.503 95.9264C189.582 96.3277 189.625 96.7266 189.625 97.1328C189.625 97.5317 189.582 97.9331 189.503 98.332C189.423 98.7261 189.306 99.1131 189.152 99.4832C188.998 99.8509 188.808 100.209 188.585 100.548C188.363 100.879 188.106 101.192 187.822 101.483C186.679 102.627 185.09 103.278 183.473 103.278Z" fill="black"/>
<path d="M277.909 59H156.897C141.516 59 129 71.5138 129 86.8971V346.103C129 361.486 141.516 374 156.897 374H277.909C293.289 374 305.806 361.486 305.806 346.103V86.8971C305.806 71.5138 293.289 59 277.909 59ZM156.897 71.3047H277.909C286.505 71.3047 293.501 78.3006 293.501 86.8971V90.9778H212.893C209.495 90.9778 206.741 93.7319 206.741 97.1301C206.741 100.526 209.495 103.282 212.893 103.282H293.501V323.558H141.305V103.282H157.522C160.92 103.282 163.675 100.526 163.675 97.1301C163.675 93.7319 160.92 90.9778 157.522 90.9778H141.305V86.8971C141.305 78.3006 148.301 71.3047 156.897 71.3047ZM293.501 346.103C293.501 354.699 286.505 361.695 277.909 361.695H156.897C148.301 361.695 141.305 354.699 141.305 346.103V335.863H293.501V346.103Z" fill="black"/>
<path d="M215.133 130.367H209.596C207.557 130.367 205.904 132.02 205.904 134.059V160.514C205.904 162.552 207.557 164.205 209.596 164.205H215.133C217.172 164.205 218.824 162.552 218.824 160.514V134.059C218.824 132.02 217.172 130.367 215.133 130.367Z" fill="black"/>
<path d="M199.752 134.059C199.752 132.02 198.099 130.367 196.061 130.367C194.022 130.367 192.369 132.02 192.369 134.059V175.895C192.369 177.933 194.022 179.586 196.061 179.586C198.099 179.586 199.752 177.933 199.752 175.895V134.059Z" fill="black"/>
<path d="M238.512 130.367H228.668C226.629 130.367 224.977 132.02 224.977 134.059V175.895C224.977 177.933 226.629 179.586 228.668 179.586H238.512C240.55 179.586 242.203 177.933 242.203 175.895V134.059C242.203 132.02 240.55 130.367 238.512 130.367Z" fill="black"/>
<path d="M204.564 266.289H161.146C157.748 266.289 154.994 263.535 154.994 260.137V216.719C154.994 213.323 157.748 210.566 161.146 210.566H204.564C207.962 210.566 210.716 213.323 210.716 216.719V260.137C210.716 263.535 207.962 266.289 204.564 266.289ZM167.298 253.984H198.411V222.871H167.298V253.984Z" fill="black"/>
<path d="M273.66 266.289H230.243C226.844 266.289 224.09 263.535 224.09 260.137V216.719C224.09 213.323 226.844 210.566 230.243 210.566H273.66C277.058 210.566 279.812 213.323 279.812 216.719V260.137C279.812 263.535 277.058 266.289 273.66 266.289ZM236.395 253.984H267.508V222.871H236.395V253.984Z" fill="black"/>
<path d="M224.991 354.93H209.814C206.416 354.93 203.662 352.175 203.662 348.777C203.662 345.379 206.416 342.625 209.814 342.625H224.991C228.389 342.625 231.143 345.379 231.143 348.777C231.143 352.175 228.389 354.93 224.991 354.93Z" fill="black"/>
<path d="M237.707 293.404H197.101C193.703 293.404 190.949 290.65 190.949 287.252C190.949 283.854 193.703 281.1 197.101 281.1H237.707C241.103 281.1 243.859 283.854 243.859 287.252C243.859 290.65 241.103 293.404 237.707 293.404Z" fill="black"/>
</svg>
