<svg width="434" height="434" viewBox="0 0 434 434" fill="none" xmlns="http://www.w3.org/2000/svg">
<rect width="434" height="434" rx="33" fill="#F7F7F7"/>
<path d="M160.427 344.974C157.878 344.974 155.812 347.039 155.812 349.588V369.386C155.812 371.934 157.878 374 160.427 374C162.975 374 165.041 371.934 165.041 369.386V349.588C165.041 347.039 162.975 344.974 160.427 344.974Z" fill="black"/>
<path d="M272.329 121.162C268.865 121.041 265.53 121.868 262.61 123.541V96.2605C262.61 86.3509 254.705 78.0059 244.988 77.6595C241.525 77.5414 238.185 78.3658 235.264 80.0386V77.6189C235.264 67.7062 227.359 59.3587 217.642 59.0111C212.629 58.8401 207.887 60.6489 204.284 64.1249C200.68 67.6041 198.694 72.278 198.694 77.286V80.038C195.773 78.3652 192.437 77.5414 188.969 77.6589C179.253 78.0052 171.348 86.3503 171.348 96.2599V104.897C168.428 103.226 165.095 102.389 161.632 102.52C151.911 102.859 144 111.203 144 121.121V169.743C144 172.292 146.066 174.358 148.615 174.358C151.163 174.358 153.229 172.292 153.229 169.743V121.121C153.229 116.118 157.143 111.91 161.957 111.743C164.448 111.647 166.797 112.554 168.581 114.275C170.365 115.996 171.346 118.307 171.348 120.784C171.348 120.787 171.347 120.789 171.347 120.792V164.296C171.347 166.844 173.413 168.91 175.961 168.91C178.51 168.91 180.576 166.844 180.576 164.296L180.576 96.2592C180.576 91.2592 184.489 87.0523 189.298 86.8806C191.787 86.7926 194.141 87.6915 195.925 89.4141C197.706 91.1325 198.687 93.4396 198.694 95.9116C198.694 95.9184 198.692 95.9252 198.692 95.9319V164.295C198.692 166.844 200.758 168.909 203.307 168.909C205.855 168.909 207.921 166.844 207.921 164.295L207.923 77.2848C207.923 74.8042 208.906 72.4884 210.693 70.7639C212.477 69.0419 214.825 68.1344 217.312 68.2316C222.122 68.4033 226.035 72.6139 226.035 77.617L226.037 164.295C226.037 166.844 228.103 168.909 230.651 168.909C233.2 168.909 235.266 166.844 235.266 164.295V95.9332C235.266 95.9264 235.264 95.9196 235.264 95.9129C235.27 93.4402 236.252 91.1337 238.033 89.4154C239.818 87.6927 242.17 86.792 244.659 86.8818C249.469 87.0535 253.382 91.2605 253.382 96.2605L253.382 177.986L225.489 196.581C217.271 202.06 212.364 211.227 212.364 221.104V241.982C212.364 244.531 214.43 246.596 216.978 246.596C219.527 246.596 221.593 244.531 221.593 241.982V221.104C221.593 214.32 224.963 208.023 230.608 204.259L260.555 184.294C261.839 183.438 262.61 181.998 262.61 180.455V139.438C262.61 139.436 262.61 139.434 262.61 139.431C262.612 136.953 263.595 134.64 265.38 132.917C267.164 131.195 269.508 130.3 272 130.384C276.813 130.556 280.728 134.763 280.728 139.763V162.583C280.728 165.132 282.794 167.197 285.343 167.197C287.891 167.197 289.957 165.132 289.957 162.583V139.763C289.957 129.685 282.214 121.515 272.329 121.162V121.162Z" fill="black"/>
<path d="M285.343 179.501C282.794 179.501 280.728 181.566 280.728 184.115V209.081C280.728 218.28 277.967 227.142 272.742 234.71L263.52 248.06C262.988 248.831 262.702 249.745 262.702 250.683V273.416H171.255V250.683C171.255 249.746 170.969 248.831 170.437 248.06L161.215 234.712C155.99 227.142 153.229 218.28 153.229 209.081V191.277C153.229 188.728 151.163 186.662 148.614 186.662C146.066 186.662 144 188.728 144 191.277V209.081C144 220.162 147.327 230.837 153.622 239.955L162.026 252.121L162.025 293.3H160.427C157.878 293.3 155.812 295.365 155.812 297.914V328.054C155.812 330.603 157.878 332.669 160.427 332.669C162.975 332.669 165.041 330.603 165.041 328.054V302.528H268.917V369.386C268.917 371.935 270.983 374 273.531 374C276.079 374 278.145 371.935 278.145 369.386V297.915C278.145 295.366 276.079 293.3 273.531 293.3H271.933L271.931 252.122L280.337 239.955C286.63 230.837 289.958 220.162 289.958 209.082V184.116C289.957 181.567 287.891 179.501 285.343 179.501V179.501ZM171.252 293.3V282.644H262.704V293.3H171.252Z" fill="black"/>
<path d="M243.702 316.296C235.675 316.296 229.145 322.827 229.145 330.854C229.145 338.881 235.675 345.412 243.702 345.412C251.729 345.412 258.26 338.881 258.26 330.854C258.26 322.827 251.729 316.296 243.702 316.296ZM243.702 336.183C240.764 336.183 238.372 333.793 238.372 330.854C238.372 327.916 240.763 325.524 243.702 325.524C246.641 325.524 249.032 327.916 249.032 330.854C249.031 333.793 246.641 336.183 243.702 336.183Z" fill="black"/>
</svg>
