<svg width="434" height="434" viewBox="0 0 434 434" fill="none" xmlns="http://www.w3.org/2000/svg">
<rect width="434" height="434" rx="33" fill="#F7F7F7"/>
<path d="M328.562 164.938C324.455 164.938 321.125 161.607 321.125 157.5V119.383C321.125 115.794 318.206 112.875 314.617 112.875H276.5C272.392 112.875 269.062 109.545 269.062 105.438C269.062 101.33 272.392 98 276.5 98H314.617C326.407 98 336 107.593 336 119.383V157.5C336 161.607 332.67 164.938 328.562 164.938Z" fill="black"/>
<path d="M105.438 164.938C101.33 164.938 98 161.607 98 157.5V119.383C98 107.593 107.593 98 119.383 98H157.5C161.608 98 164.938 101.33 164.938 105.438C164.938 109.545 161.608 112.875 157.5 112.875H119.383C115.794 112.875 112.875 115.794 112.875 119.383V157.5C112.875 161.607 109.545 164.938 105.438 164.938Z" fill="black"/>
<path d="M157.5 336H119.383C107.593 336 98 326.407 98 314.617V276.5C98 272.393 101.33 269.062 105.438 269.062C109.545 269.062 112.875 272.393 112.875 276.5V314.617C112.875 318.206 115.794 321.125 119.383 321.125H157.5C161.608 321.125 164.938 324.455 164.938 328.562C164.938 332.67 161.608 336 157.5 336Z" fill="black"/>
<path d="M314.617 336H276.5C272.392 336 269.062 332.67 269.062 328.562C269.062 324.455 272.392 321.125 276.5 321.125H314.617C318.206 321.125 321.125 318.206 321.125 314.617V276.5C321.125 272.393 324.455 269.062 328.562 269.062C332.67 269.062 336 272.393 336 276.5V314.617C336 326.407 326.407 336 314.617 336Z" fill="black"/>
<path d="M188.18 209.562H149.133C137.343 209.562 127.75 199.97 127.75 188.18V149.133C127.75 137.343 137.343 127.75 149.133 127.75H188.18C199.97 127.75 209.562 137.343 209.562 149.133V188.18C209.562 199.97 199.97 209.562 188.18 209.562ZM149.133 142.625C145.544 142.625 142.625 145.544 142.625 149.133V188.18C142.625 191.768 145.544 194.688 149.133 194.688H188.18C191.768 194.688 194.688 191.768 194.688 188.18V149.133C194.688 145.544 191.768 142.625 188.18 142.625H149.133Z" fill="black"/>
<path d="M188.18 306.25H149.133C137.343 306.25 127.75 296.657 127.75 284.867V245.82C127.75 234.03 137.343 224.438 149.133 224.438H188.18C199.97 224.438 209.562 234.03 209.562 245.82V284.867C209.562 296.657 199.97 306.25 188.18 306.25ZM149.133 239.312C145.544 239.312 142.625 242.232 142.625 245.82V284.867C142.625 288.456 145.544 291.375 149.133 291.375H188.18C191.768 291.375 194.688 288.456 194.688 284.867V245.82C194.688 242.232 191.768 239.312 188.18 239.312H149.133Z" fill="black"/>
<path d="M284.867 209.562H245.82C234.03 209.562 224.438 199.97 224.438 188.18V149.133C224.438 137.343 234.03 127.75 245.82 127.75H284.867C296.657 127.75 306.25 137.343 306.25 149.133V188.18C306.25 199.97 296.657 209.562 284.867 209.562ZM245.82 142.625C242.232 142.625 239.312 145.544 239.312 149.133V188.18C239.312 191.768 242.232 194.688 245.82 194.688H284.867C288.456 194.688 291.375 191.768 291.375 188.18V149.133C291.375 145.544 288.456 142.625 284.867 142.625H245.82Z" fill="black"/>
<path d="M294.164 261.625H276.5V236.523C276.5 229.859 271.079 224.438 264.414 224.438H236.523C229.859 224.438 224.438 229.859 224.438 236.523V264.414C224.438 271.078 229.859 276.5 236.523 276.5H261.625V294.164C261.625 300.828 267.046 306.25 273.711 306.25H294.164C300.829 306.25 306.25 300.828 306.25 294.164V273.711C306.25 267.047 300.829 261.625 294.164 261.625ZM239.312 239.312H261.625V261.625H239.312V239.312ZM291.375 291.375H276.5V276.5H291.375V291.375Z" fill="black"/>
<path d="M172.375 179.812H164.938C160.83 179.812 157.5 176.482 157.5 172.375V164.938C157.5 160.83 160.83 157.5 164.938 157.5H172.375C176.483 157.5 179.812 160.83 179.812 164.938V172.375C179.812 176.482 176.483 179.812 172.375 179.812Z" fill="black"/>
<path d="M269.062 179.812H261.625C257.517 179.812 254.188 176.482 254.188 172.375V164.938C254.188 160.83 257.517 157.5 261.625 157.5H269.062C273.17 157.5 276.5 160.83 276.5 164.938V172.375C276.5 176.482 273.17 179.812 269.062 179.812Z" fill="black"/>
<path d="M172.375 276.5H164.938C160.83 276.5 157.5 273.17 157.5 269.062V261.625C157.5 257.518 160.83 254.188 164.938 254.188H172.375C176.483 254.188 179.812 257.518 179.812 261.625V269.062C179.812 273.17 176.483 276.5 172.375 276.5Z" fill="black"/>
</svg>
