<svg width="434" height="434" viewBox="0 0 434 434" fill="none" xmlns="http://www.w3.org/2000/svg">
<rect width="434" height="434" rx="33" fill="#F7F7F7"/>
<g clip-path="url(#clip0)">
<path fill-rule="evenodd" clip-rule="evenodd" d="M93.9401 248.578H95.8054L94.0587 255.829C93.7924 256.895 93.8517 257.723 94.2065 258.256C94.5622 258.789 95.2125 259.055 96.1893 259.055C97.136 259.055 97.935 258.789 98.5571 258.256C99.1782 257.722 99.5932 256.894 99.8596 255.829L101.605 248.578H103.5L101.724 256.007C101.339 257.605 100.659 258.819 99.6525 259.618C98.6757 260.417 97.3732 260.832 95.7753 260.832C94.1773 260.832 93.0819 260.447 92.4899 259.647C91.898 258.848 91.7794 257.635 92.1643 256.037L93.9401 248.579V248.578ZM318.564 260.505L321.404 248.578H327.886L327.501 250.235H322.914L322.204 253.224H326.791L326.376 254.911H321.789L320.872 258.757H325.46L325.045 260.504H318.564V260.505ZM318.386 251.478C317.971 251.006 317.469 250.65 316.936 250.442C316.402 250.206 315.812 250.087 315.13 250.087C313.858 250.087 312.733 250.501 311.727 251.33C310.721 252.16 310.07 253.255 309.744 254.586C309.448 255.859 309.566 256.924 310.159 257.783C310.721 258.611 311.609 259.026 312.793 259.026C313.473 259.026 314.154 258.907 314.834 258.641C315.515 258.405 316.196 258.019 316.906 257.516L316.373 259.706C315.781 260.09 315.16 260.357 314.508 260.535C313.857 260.712 313.206 260.801 312.496 260.801C311.609 260.801 310.809 260.653 310.128 260.356C309.447 260.061 308.886 259.617 308.441 259.026C307.998 258.463 307.731 257.783 307.613 257.014C307.495 256.244 307.524 255.416 307.762 254.527C307.969 253.64 308.323 252.839 308.798 252.07C309.271 251.3 309.892 250.62 310.603 250.058C311.312 249.466 312.082 249.023 312.911 248.727C313.739 248.431 314.567 248.283 315.427 248.283C316.107 248.283 316.728 248.372 317.321 248.579C317.883 248.787 318.416 249.081 318.889 249.496L318.386 251.478ZM299.978 255.8H303.203L302.67 253.076C302.641 252.899 302.611 252.691 302.611 252.484C302.581 252.248 302.581 252.011 302.581 251.745C302.462 252.011 302.345 252.247 302.196 252.484C302.077 252.72 301.96 252.928 301.841 253.106L299.977 255.8H299.978ZM304.091 260.505L303.499 257.428H298.882L296.81 260.505H294.828L303.41 248.105L306.073 260.505H304.091ZM288.466 260.505L291.307 248.578H297.788L297.403 250.235H292.815L292.106 253.195H296.691L296.277 254.882H291.691L290.359 260.475H288.465V260.505H288.466ZM282.872 253.639H283.226C284.233 253.639 284.914 253.52 285.299 253.283C285.683 253.046 285.95 252.632 286.098 252.01C286.245 251.359 286.186 250.885 285.89 250.619C285.595 250.353 284.972 250.204 284.025 250.204H283.67L282.871 253.638L282.872 253.639ZM282.398 255.148L281.125 260.475H279.349L282.191 248.549H284.825C285.595 248.549 286.186 248.608 286.571 248.697C286.984 248.787 287.311 248.964 287.547 249.2C287.843 249.496 288.02 249.851 288.109 250.324C288.198 250.77 288.168 251.272 288.049 251.834C287.813 252.782 287.427 253.552 286.836 254.083C286.245 254.616 285.504 254.941 284.616 255.06L287.31 260.474H285.178L282.603 255.147H282.396L282.398 255.148ZM270.708 260.505L273.55 248.578H280.061L279.677 250.235H275.089L274.379 253.224H278.966L278.553 254.911H273.965L273.049 258.757H277.636L277.221 260.504H270.709L270.708 260.505ZM268.667 250.206L266.211 260.475H264.317L266.774 250.206H263.695L264.08 248.549H272.13L271.746 250.206H268.668H268.667ZM249.401 260.505L252.361 248.105L257.984 255.386C258.133 255.593 258.279 255.801 258.427 256.037C258.575 256.273 258.724 256.54 258.901 256.835L260.884 248.578H262.63L259.67 260.949L253.929 253.52C253.781 253.313 253.632 253.106 253.486 252.898C253.338 252.662 253.219 252.454 253.13 252.188L251.148 260.474H249.402V260.504L249.401 260.505ZM244.784 260.505L247.625 248.578H249.519L246.678 260.505H244.784ZM230.845 258.108L232.531 257.398C232.561 257.93 232.708 258.344 233.035 258.611C233.361 258.877 233.804 259.026 234.396 259.026C234.957 259.026 235.432 258.877 235.846 258.552C236.26 258.227 236.527 257.813 236.645 257.28C236.823 256.569 236.409 255.947 235.403 255.416C235.255 255.326 235.166 255.267 235.076 255.238C233.951 254.587 233.242 254.025 232.945 253.492C232.65 252.96 232.59 252.337 232.769 251.599C233.005 250.622 233.508 249.852 234.306 249.231C235.106 248.639 235.994 248.314 237.06 248.314C237.918 248.314 238.598 248.491 239.101 248.816C239.605 249.143 239.871 249.645 239.959 250.267L238.303 251.037C238.154 250.652 237.976 250.386 237.74 250.208C237.504 250.031 237.208 249.942 236.852 249.942C236.348 249.942 235.905 250.089 235.55 250.356C235.195 250.622 234.958 250.978 234.84 251.451C234.663 252.162 235.166 252.841 236.319 253.463C236.409 253.522 236.467 253.553 236.527 253.581C237.533 254.113 238.214 254.647 238.509 255.18C238.806 255.711 238.865 256.333 238.688 257.132C238.421 258.257 237.859 259.144 237 259.826C236.142 260.476 235.135 260.833 233.951 260.833C232.976 260.833 232.206 260.594 231.673 260.121C231.081 259.648 230.815 258.966 230.845 258.109V258.108ZM228.862 250.206L226.406 260.475H224.512L226.969 250.206H223.891L224.274 248.549H232.324L231.939 250.206H228.862ZM209.596 260.505L212.555 248.105L218.179 255.386C218.327 255.593 218.475 255.801 218.623 256.037C218.77 256.273 218.919 256.54 219.097 256.835L221.079 248.578H222.825L219.866 260.949L214.125 253.52C213.976 253.313 213.829 253.106 213.681 252.898C213.533 252.662 213.414 252.454 213.326 252.188L211.343 260.474H209.597V260.504L209.596 260.505ZM200.954 260.505L203.795 248.578H210.277L209.892 250.235H205.305L204.594 253.224H209.181L208.767 254.911H204.18L203.263 258.757H207.851L207.436 260.504H200.954V260.505ZM197.818 254.616C197.818 254.527 197.847 254.26 197.906 253.846C197.936 253.491 197.965 253.225 197.996 252.988C197.877 253.255 197.758 253.52 197.611 253.816C197.463 254.083 197.285 254.379 197.078 254.645L192.52 261.008L191.041 254.527C190.982 254.261 190.922 253.995 190.892 253.758C190.863 253.521 190.833 253.255 190.833 253.018C190.774 253.255 190.685 253.52 190.597 253.816C190.507 254.083 190.39 254.379 190.241 254.675L187.578 260.535H185.832L191.544 248.105L193.172 255.622C193.201 255.74 193.231 255.947 193.261 256.214C193.29 256.481 193.35 256.836 193.409 257.25C193.616 256.895 193.882 256.481 194.238 255.947C194.326 255.801 194.415 255.711 194.445 255.622L199.595 248.105L199.417 260.535H197.671L197.82 254.616H197.818ZM179.795 260.505L181.098 255.06L178.73 248.608H180.712L182.191 252.663C182.221 252.781 182.25 252.899 182.31 253.076C182.369 253.255 182.399 253.432 182.457 253.609C182.576 253.432 182.695 253.254 182.813 253.076C182.932 252.899 183.05 252.751 183.168 252.603L186.631 248.608H188.525L182.991 255.03L181.689 260.474H179.794V260.504L179.795 260.505ZM171.005 255.8H174.23L173.698 253.076C173.668 252.899 173.638 252.691 173.638 252.484C173.608 252.248 173.608 252.011 173.608 251.745C173.49 252.011 173.371 252.247 173.223 252.484C173.105 252.72 172.987 252.928 172.868 253.106L171.003 255.8H171.005ZM175.089 260.505L174.497 257.428H169.88L167.808 260.505H165.826L174.408 248.105L177.072 260.505H175.089ZM163.222 253.551H163.695C164.731 253.551 165.471 253.432 165.885 253.195C166.299 252.959 166.565 252.545 166.714 251.952C166.861 251.33 166.772 250.857 166.477 250.621C166.151 250.355 165.5 250.236 164.524 250.236H164.051L163.222 253.552V253.551ZM162.718 255.148L161.446 260.505H159.67L162.511 248.578H165.381C166.24 248.578 166.832 248.637 167.217 248.726C167.601 248.814 167.898 248.963 168.134 249.199C168.43 249.465 168.637 249.85 168.726 250.323C168.814 250.798 168.785 251.3 168.667 251.862C168.519 252.425 168.312 252.958 167.986 253.431C167.661 253.904 167.276 254.289 166.862 254.555C166.507 254.763 166.122 254.939 165.708 255.029C165.294 255.117 164.643 255.178 163.814 255.178H162.719V255.147L162.718 255.148ZM145.05 258.729H146.648C147.507 258.729 148.187 258.67 148.661 258.552C149.135 258.435 149.549 258.227 149.934 257.96C150.466 257.575 150.91 257.102 151.265 256.51C151.621 255.947 151.887 255.267 152.064 254.498C152.241 253.728 152.3 253.077 152.212 252.516C152.123 251.953 151.916 251.45 151.561 251.065C151.294 250.77 150.969 250.592 150.526 250.473C150.081 250.355 149.401 250.296 148.424 250.296H147.063L145.05 258.73V258.729ZM142.742 260.505L145.584 248.578H148.129C149.786 248.578 150.941 248.666 151.561 248.844C152.183 249.022 152.714 249.288 153.129 249.702C153.662 250.235 154.018 250.916 154.166 251.714C154.313 252.544 154.254 253.49 154.018 254.526C153.751 255.592 153.367 256.508 152.834 257.336C152.301 258.165 151.621 258.817 150.822 259.349C150.23 259.764 149.579 260.031 148.868 260.208C148.188 260.385 147.152 260.474 145.79 260.474H142.742V260.504V260.505ZM134.071 260.505L136.912 248.578H143.393L143.008 250.235H138.42L137.71 253.224H142.298L141.884 254.911H137.296L136.378 258.757H140.966L140.552 260.504H134.071V260.505ZM129.483 260.505L132.324 248.578H134.217L131.376 260.505H129.482H129.483ZM120.9 260.505L123.741 248.578H130.223L129.838 250.235H125.251L124.54 253.195H129.127L128.713 254.882H124.125L122.794 260.475H120.899V260.505H120.9ZM116.312 260.505L119.154 248.578H121.047L118.206 260.505H116.311H116.312ZM103.232 260.505L106.191 248.105L111.814 255.386C111.962 255.593 112.109 255.801 112.258 256.037C112.406 256.273 112.554 256.54 112.732 256.835L114.714 248.578H116.46L113.501 260.949L107.76 253.52C107.612 253.313 107.464 253.106 107.316 252.898C107.168 252.662 107.049 252.454 106.961 252.188L104.978 260.474H103.232V260.504V260.505Z" fill="#3A3734"/>
<path fill-rule="evenodd" clip-rule="evenodd" d="M284.147 238.189H271.155L289.208 173.008H302.2L284.147 238.189ZM176.186 234.106C175.475 236.68 173.108 238.484 170.444 238.484H103.472C101.637 238.484 100.276 237.862 99.3879 236.621C98.5005 235.377 98.2935 233.838 98.8261 232.005L115.162 173.186H128.155L113.564 225.732H165.533L180.122 173.186H193.115L176.187 234.106H176.186ZM277.399 175.049C276.512 173.807 275.12 173.186 273.226 173.186H201.844L198.323 185.967H263.254L259.466 199.608H207.528V199.577H194.536L183.764 238.485H196.755L203.976 212.389H262.366C264.202 212.389 265.918 211.767 267.516 210.525C269.114 209.282 270.18 207.744 270.683 205.909L277.904 179.814C278.466 177.862 278.289 176.293 277.4 175.05L277.399 175.049Z" fill="black"/>
<path fill-rule="evenodd" clip-rule="evenodd" d="M324.615 173.129L341.041 205.793L306.504 238.458L310.611 223.641L329.499 205.793L320.514 187.924L324.615 173.129Z" fill="#0E8635"/>
<path fill-rule="evenodd" clip-rule="evenodd" d="M313.076 173.129L329.5 205.793L294.934 238.458L313.076 173.129Z" fill="#E97208"/>
<path d="M80.5242 117H352.478C361.152 117 369.034 120.546 374.744 126.256C380.456 131.967 384.001 139.849 384.001 148.523V285.477C384.001 294.15 380.455 302.032 374.744 307.743C369.033 313.453 361.151 317 352.479 317H80.5252C71.8531 317 63.9699 313.454 58.2585 307.743C52.5481 302.033 49.0024 294.152 49.0024 285.477V148.523C49.0024 139.848 52.5481 131.966 58.2585 126.256C63.9689 120.546 71.8521 117 80.5262 117H80.5242ZM352.478 127.865H80.5242C74.849 127.865 69.6853 130.191 65.9387 133.938C62.192 137.685 59.8655 142.848 59.8655 148.524V285.478C59.8655 291.153 62.192 296.316 65.9387 300.063C69.6863 303.811 74.85 306.137 80.5242 306.137H352.478C358.151 306.137 363.315 303.811 367.062 300.063C370.809 296.315 373.136 291.152 373.136 285.479V148.525C373.136 142.851 370.81 137.687 367.063 133.939C363.317 130.193 358.152 127.866 352.478 127.866V127.865Z" fill="black"/>
</g>
<defs>
<clipPath id="clip0">
<rect width="335" height="200" fill="white" transform="translate(49 117)"/>
</clipPath>
</defs>
</svg>
